<?xml version="1.0" encoding="utf-8"?>
<!-- Generator: Adobe Illustrator 25.4.1, SVG Export Plug-In . SVG Version: 6.00 Build 0)  -->
<svg version="1.1" id="Capa_1" xmlns="http://www.w3.org/2000/svg" xmlns:xlink="http://www.w3.org/1999/xlink" x="0px" y="0px"
	 viewBox="0 0 234.5 39" style="enable-background:new 0 0 234.5 39;" xml:space="preserve">
<style type="text/css">
	.st0{fill:#005587;}
	.st1{fill:#E8501D;}
</style>
<g id="Capa_2_00000044894135745050062970000000509656007463221409_">
	<g id="Super_menu">
		<path class="st0" d="M21.7,8.4H9.9v6.4H21v8.4H9.9v6.6h11.8v8.4H0V0h21.7V8.4z"/>
		<path class="st0" d="M50.2,24.9c0-1.9,0.4-3.7,1.2-5.4c0.8-1.7,1.9-3.1,3.2-4.3c1.4-1.3,3.1-2.3,4.9-2.9c2-0.7,4.1-1.1,6.2-1.1
			c2.1,0,4.2,0.3,6.2,1c1.8,0.6,3.5,1.6,4.9,2.9c1.4,1.2,2.5,2.7,3.3,4.4c0.8,1.8,1.2,3.7,1.2,5.6c0,1.9-0.4,3.9-1.2,5.6
			c-0.8,1.7-1.9,3.2-3.3,4.4c-1.5,1.3-3.1,2.2-5,2.9c-2,0.7-4.2,1-6.3,1c-2.1,0-4.2-0.3-6.2-1c-1.8-0.6-3.5-1.6-4.9-2.9
			c-1.4-1.3-2.5-2.8-3.2-4.5C50.5,28.9,50.1,26.9,50.2,24.9z M59.8,25c0,0.8,0.2,1.6,0.5,2.4c0.3,0.7,0.7,1.3,1.3,1.9
			c0.5,0.5,1.2,1,1.9,1.3c1.5,0.6,3.1,0.6,4.6,0c0.7-0.3,1.3-0.7,1.9-1.3c0.5-0.6,1-1.2,1.3-1.9c0.3-0.7,0.5-1.5,0.5-2.3
			c0-0.8-0.2-1.6-0.5-2.3c-0.3-0.7-0.7-1.3-1.3-1.9c-0.5-0.5-1.2-1-1.9-1.3c-1.5-0.6-3.1-0.6-4.6,0c-0.7,0.3-1.3,0.7-1.9,1.3
			c-0.5,0.5-1,1.2-1.3,1.9C60,23.4,59.8,24.2,59.8,25z"/>
		<path class="st0" d="M92.5,0v38.1h-9.1V0H92.5z"/>
		<path class="st0" d="M104.7,12.2v14.6c0,3.2,1.5,4.8,4.6,4.8c3.1,0,4.6-1.6,4.6-4.8V12.2h9.1v16.4c0,3.5-1.2,6.1-3.5,7.9
			c-2.3,1.8-5.7,2.6-10.3,2.6c-4.6,0-8-0.9-10.3-2.6c-2.3-1.7-3.5-4.4-3.5-7.9V12.2H104.7z"/>
		<path class="st0" d="M138.9,19.8v18.3h-9.1V19.8h-3.9v-7.6h3.9V4.4h9.1v7.8h5.2v7.6H138.9z"/>
		<path class="st0" d="M154.7,26.7c0,3.9,1.9,5.9,5.6,5.9c1.8,0.1,3.6-0.8,4.5-2.4h8.8c-1.8,5.9-6.2,8.9-13.4,8.9c-2,0-4.1-0.3-6-1
			c-1.7-0.6-3.3-1.6-4.7-2.8c-1.3-1.2-2.3-2.7-3-4.3c-0.7-1.8-1.1-3.7-1.1-5.7c0-2,0.3-4,1-5.8c0.6-1.7,1.6-3.2,2.9-4.4
			c1.3-1.2,2.8-2.2,4.5-2.8c1.9-0.7,3.9-1,6-1c2,0,4,0.3,5.9,1c1.7,0.6,3.2,1.6,4.4,2.9c1.2,1.3,2.2,2.9,2.8,4.6c0.7,2,1,4,1,6.1v1
			L154.7,26.7z M165.4,21.4c-0.3-1.2-0.9-2.3-1.9-3.1c-2-1.5-4.8-1.6-6.9-0.1c-0.9,0.8-1.5,1.9-1.7,3.1L165.4,21.4z"/>
		<path class="st1" d="M182.4,33.5c-3.7-3.7-5.7-8.7-5.7-13.9V39h19.4c-2.6,0-5.2-0.5-7.6-1.4C186.3,36.7,184.2,35.3,182.4,33.5z"/>
		<path class="st1" d="M226.7,25c-0.5,0.7-1.1,1.3-1.7,1.9c-0.6,0.5-1.2,1-1.9,1.4c-0.7,0.4-1.4,0.7-2.2,0.9
			c-0.9,0.2-1.8,0.3-2.7,0.3c-1.2,0-2.5-0.3-3.6-0.8c-1.1-0.5-2-1.2-2.8-2.1c-0.8-0.9-1.4-2-1.9-3.2c-0.5-1.3-0.7-2.6-0.7-3.9v-0.1
			c0-1.3,0.2-2.6,0.7-3.9c0.4-1.2,1-2.2,1.9-3.2c0.8-0.9,1.7-1.6,2.8-2.1c1.1-0.5,2.4-0.8,3.6-0.8c1.6,0,3.3,0.4,4.7,1.2
			c1.4,0.9,2.6,1.9,3.5,3.2l7.8-6.1c-0.8-1.1-1.8-2.2-2.8-3.2c-1.1-1-2.3-1.8-3.5-2.5c-1.4-0.7-2.8-1.3-4.3-1.6
			c-1.7-0.4-3.5-0.6-5.3-0.6c-2.7,0-5.4,0.5-7.9,1.5c-1,0.4-2,0.9-2.9,1.5c0.8,0.5,1.5,1,2.2,1.7c1,1,2,2,2.8,3.2l-7.8,6.1
			c-1-1.3-2.2-2.4-3.5-3.2c-1.4-0.8-3-1.2-4.7-1.2c-1.2,0-2.5,0.3-3.6,0.8c-1.1,0.5-2,1.2-2.8,2.1c-0.8,0.9-1.4,2-1.8,3.2
			c-0.5,1.2-0.7,2.5-0.7,3.9v0.1c0,1.3,0.2,2.7,0.7,3.9c0.4,1.2,1,2.3,1.8,3.2c0.8,0.9,1.7,1.6,2.8,2.1c1.1,0.5,2.4,0.8,3.6,0.8
			c0.9,0,1.8-0.1,2.7-0.3c0.8-0.2,1.5-0.5,2.2-0.9c0.7-0.4,1.3-0.9,1.9-1.4c0.6-0.6,1.2-1.2,1.7-1.9l7.8,5.6
			c-0.9,1.2-1.9,2.3-2.9,3.4c-1.1,1.1-2.3,2-3.6,2.7c-1.4,0.8-2.9,1.4-4.5,1.8c-1.8,0.5-3.7,0.7-5.6,0.6h22.6v0
			c1.6,0,3.2-0.2,4.7-0.6c1.6-0.4,3.1-1,4.5-1.8c1.3-0.7,2.5-1.6,3.6-2.7c1.1-1,2-2.2,2.9-3.4L226.7,25z"/>
		<polygon class="st0" points="42.4,12.2 36.1,25.5 31.1,14.7 21,14.7 33,38.1 39.1,38.1 52.6,12.2 		"/>
	</g>
</g>
</svg>
